<svg xmlns="http://www.w3.org/2000/svg" width="123.51" height="123.796" viewBox="0 0 123.51 123.796">
  <g id="Blocks" transform="translate(3004.31 399.594)">
    <path id="Path_10" data-name="Path 10" d="M6.142,6.373,29.114,0,22.828,23.059,0,29.114Z" transform="translate(-2942.445 -399.096) rotate(45)" fill="#fff"/>
    <path id="Path_13" data-name="Path 13" d="M6.142,6.373,29.114,0,22.828,23.059,0,29.114Z" transform="translate(-2970.82 -350.317) rotate(45)" fill="#fff"/>
    <path id="Path_14" data-name="Path 14" d="M6.142,6.373,29.114,0,22.828,23.059,0,29.114Z" transform="translate(-2913.784 -350.317) rotate(45)" fill="#fff"/>
    <path id="Path_11" data-name="Path 11" d="M6.1,6.147,29.037,0,22.828,23.038,0,29.094Z" transform="matrix(-0.259, 0.966, -0.966, -0.259, -2939.061, -364.228)" fill="#fff"/>
    <path id="Path_15" data-name="Path 15" d="M6.1,6.147,29.037,0,22.828,23.038,0,29.094Z" transform="matrix(-0.259, 0.966, -0.966, -0.259, -2967.625, -315.449)" fill="#fff"/>
    <path id="Path_16" data-name="Path 16" d="M6.1,6.147,29.037,0,22.828,23.038,0,29.094Z" transform="matrix(-0.259, 0.966, -0.966, -0.259, -2910.61, -315.449)" fill="#fff"/>
    <path id="Path_12" data-name="Path 12" d="M6.1,6.147,29.037,0,22.828,23.038,0,29.094Z" transform="matrix(-0.966, 0.259, -0.259, -0.966, -2910.61, -343.486)" fill="#fff"/>
    <path id="Path_17" data-name="Path 17" d="M6.1,6.147,29.037,0,22.828,23.038,0,29.094Z" transform="matrix(-0.966, 0.259, -0.259, -0.966, -2939.061, -294.877)" fill="#fff"/>
    <path id="Path_18" data-name="Path 18" d="M6.1,6.147,29.037,0,22.828,23.038,0,29.094Z" transform="matrix(-0.966, 0.259, -0.259, -0.966, -2881.747, -294.877)" fill="#fff"/>
    <path id="Border" d="M-1832.1,922.124l-26.722,15.48s-2.936,1.411-2.923,4.307,0,29.863,0,29.863l-26.164,15.1a3.988,3.988,0,0,0-2.379,3.58c0,2.619,0,31.781,0,31.781s-.2,2.8,1.883,3.988,28.553,16.221,28.553,16.221a3.331,3.331,0,0,0,3.866,0c2.342-1.335,26.552-15.268,26.552-15.268l26.424,15.234a4.983,4.983,0,0,0,4.07,0c1.937-1.017,28.166-16.278,28.166-16.278a4.463,4.463,0,0,0,1.955-3.8c.06-2.733,0-32.162,0-32.162a5.483,5.483,0,0,0-1.955-3.181c-1.547-1.036-26.526-15.078-26.526-15.078V940.691a3.771,3.771,0,0,0-1.835-2.474c-1.689-1.107-28.506-16.411-28.506-16.411a4.249,4.249,0,0,0-2.554-.4A4.793,4.793,0,0,0-1832.1,922.124Z" transform="translate(-1113 -1319.925)" fill="none" stroke="#fff" stroke-width="2"/>
  </g>
</svg>
