<svg xmlns="http://www.w3.org/2000/svg" width="123.51" height="123.796" viewBox="0 0 123.51 123.796"><path data-name="Path 10" d="m61.702 9.347 20.75 11.738-20.75 11.86-20.424-11.86Z" fill="#fff"/><path data-name="Path 13" d="m33.327 58.126 20.75 11.738-20.75 11.86-20.424-11.86Z" fill="#fff"/><path data-name="Path 14" d="m90.363 58.126 20.75 11.738-20.75 11.86-20.424-11.86Z" fill="#fff"/><path data-name="Path 11" d="m57.731 39.667-.003 23.749L37.082 51.45l.062-23.62Z" fill="#fff"/><path data-name="Path 15" d="m29.167 88.446-.003 23.749L8.518 100.23l.062-23.62Z" fill="#fff"/><path data-name="Path 16" d="m86.182 88.446-.003 23.749-20.646-11.965.062-23.62Z" fill="#fff"/><path data-name="Path 12" d="M86.215 51.75 65.65 63.629l.031-23.863 20.484-11.763Z" fill="#fff"/><path data-name="Path 17" d="M57.764 100.359 37.2 112.238l.031-23.863 20.484-11.763Z" fill="#fff"/><path data-name="Path 18" d="m115.078 100.359-20.565 11.879.031-23.863 20.484-11.763Z" fill="#fff"/><path d="m59.21 1.793-26.722 15.48s-2.936 1.411-2.923 4.307 0 29.863 0 29.863l-26.164 15.1a3.988 3.988 0 0 0-2.379 3.58v31.781s-.2 2.8 1.883 3.988 28.553 16.221 28.553 16.221a3.331 3.331 0 0 0 3.866 0c2.342-1.335 26.552-15.268 26.552-15.268L88.3 122.079a4.983 4.983 0 0 0 4.07 0c1.937-1.017 28.166-16.278 28.166-16.278a4.463 4.463 0 0 0 1.955-3.8c.06-2.733 0-32.162 0-32.162a5.483 5.483 0 0 0-1.955-3.181C118.989 65.622 94.01 51.58 94.01 51.58V20.36a3.771 3.771 0 0 0-1.835-2.474C90.486 16.779 63.669 1.475 63.669 1.475a4.249 4.249 0 0 0-2.554-.4 4.793 4.793 0 0 0-1.905.718Z" fill="none" stroke="#fff" stroke-width="2"/></svg>