<svg xmlns="http://www.w3.org/2000/svg" viewBox="0 0 337.55 435.75"><title>sam-flag</title><g data-name="Layer 2"><g data-name="Layer 6"><path d="M135.34 52.25c-12.72 4.49-21.38 2.53-30.54.45l-1.68-.38c-10.92-2.44-23.29-5.21-41.67.51-17.1 5.32-28.06 13.92-34.68 21l-8.71-12a8 8 0 0 0-14.36 3L.17 81.14A7.93 7.93 0 0 0 .31 85c.23 2.19.81 6.12 2 14.08L8 137.34l17.3 116.11s23.92 160.36 24.89 166.88a14.71 14.71 0 0 0 1.39 6.18 15.59 15.59 0 0 0 9.18 8c6.18 2.21 14.26 1.44 21.63-2.05s13.07-9.27 15.27-15.46a15.64 15.64 0 0 0-.29-11.95l-26.53-126.2c10.2-6.89 31.89-20.12 57.07-27a296.29 296.29 0 0 1 47.91-9.16c14.37-1.73 27.95-3.36 53.21-13.16 24.94-9.67 25.42-23.89 25.84-36.43.48-14.19.93-27.58 33.6-41.43C345.27 127.63 337.34 9.35 337 4.33a4.67 4.67 0 0 0-9-1.48c-.53 1.22-13.42 29.94-59.32 37.92-14.22 2.47-26.62-7.51-38.62-17.16C218.83 14.52 208.2 6 196 7.46c-7.55.93-14.47 5.66-21.14 14.47.04 0-16.11 22.07-39.52 30.32Z" fill="#c5c4bd"/><path d="m20.7 78.72 69.75 331.8a31 31 0 0 0-15.67-3.13c-8.29.81-16.37 13-16.37 13S8 82.82 8.11 82.6c4.27-7.94 12.59-3.88 12.59-3.88Z" fill="#c5c4bd" fill-rule="evenodd"/><path d="M58.42 423.74a3.37 3.37 0 0 1-3.33-2.87s-12.61-84.39-25.2-168.81c-6.3-42.21-12.59-84.42-17.3-116.1-2.36-15.84-4.32-29-5.68-38.3C6.23 93 5.69 89.4 5.33 86.92 4.61 82 4.61 82 5.14 81a11.89 11.89 0 0 1 10.78-6.7 15.38 15.38 0 0 1 6.25 1.38A3.36 3.36 0 0 1 24 78l69.75 331.8a3.36 3.36 0 0 1-4.87 3.66 28.61 28.61 0 0 0-11.81-2.84c-.66 0-1.32 0-2 .09-5.44.53-12 8.69-13.89 11.5a3.37 3.37 0 0 1-2.76 1.53ZM11.61 83.33c2.75 19.24 41.81 280.77 49 329 3.5-3.7 8.47-7.73 13.84-8.26.85-.08 1.73-.12 2.6-.12a32.91 32.91 0 0 1 8.83 1.28L17.8 81.28a8.23 8.23 0 0 0-1.88-.28 4.93 4.93 0 0 0-4.31 2.33Z" fill="#13224e"/><path d="M60.11 409.06 10.57 80.38c0 .56 3.52.29 3.52.29l55.45 322.05Z" fill="#fff" fill-rule="evenodd"/><path d="m8 82.14 3.52-16.33L20.37 78S12.19 75.38 8 82.14Z" fill="#13224e" fill-rule="evenodd"/><path d="M8 85.5a3.37 3.37 0 0 1-3.29-4.07L8.26 65.1a3.36 3.36 0 0 1 6-1.26l8.64 12a3.36 3.36 0 0 1-2.49 5.59 3.52 3.52 0 0 1-1.08-.16 10.27 10.27 0 0 0-2.67-.35 6.25 6.25 0 0 0-5.78 3A3.36 3.36 0 0 1 8 85.5Zm5.22-11.6-.14.67.54-.12Z" fill="#13224e"/><ellipse cx="74.42" cy="414.98" rx="17.26" ry="10.53" transform="rotate(-25.37 74.442 415.017)" fill="#13224e"/><path d="M68.43 430.4c-6.05 0-10.66-2.4-12.64-6.58-1.7-3.59-1.12-8 1.6-12.18a27.1 27.1 0 0 1 11.08-9.21 28.22 28.22 0 0 1 12-2.86c6.05 0 10.66 2.4 12.64 6.58 1.7 3.59 1.12 8-1.6 12.18a27.12 27.12 0 0 1-11.08 9.21 28.22 28.22 0 0 1-12 2.86Zm12-24.11a21.8 21.8 0 0 0-9.07 2.21 20.64 20.64 0 0 0-8.36 6.82c-1.4 2.15-1.82 4.19-1.15 5.61.81 1.71 3.26 2.74 6.56 2.74a21.79 21.79 0 0 0 9.07-2.21 20.64 20.64 0 0 0 8.33-6.82c1.41-2.15 1.82-4.19 1.15-5.61-.79-1.72-3.25-2.74-6.54-2.74ZM106 408.79v.6h-1.43v4.07h-.7v-4.07h-1.42v-.6Zm4.52 4.67-.19-2.82v-1.27c-.12.43-.26.93-.4 1.34l-1 2.68h-.54l-1-2.75c-.11-.38-.23-.84-.34-1.27v1.27l-.17 2.82h-.68l.36-4.67h.93l.92 2.54c.12.35.21.74.33 1.17.11-.44.21-.85.33-1.19l.91-2.52h.91l.35 4.67ZM269.52 44.66c-37.81 6.58-60.62-60.59-90.89-20.6 0 0-16.6 23-41.73 31.9-14.8 5.22-24.61 2.5-34.8.22-10.85-2.43-22.1-4.94-39.27.42-34 10.58-43.7 34.86-43 38.18 18.21 89 34.11 181.11 34.27 182a4.32 4.32 0 0 0 6.9 2.68c.28-.23 29.26-22.87 65.68-32.76a300.34 300.34 0 0 1 48.58-9.29c15-1.81 28-3.53 52.08-12.87 47.89-18.57-6.36-50 59.31-77.81C341 123.67 332.32 4 332.32 4s-13.56 32.09-62.8 40.66Z" fill="#13224e"/><path d="M36.27 94.18c-.66 2.55-2.62 4.52-4.37 4.41s-2.64-2.28-2-4.84 2.62-4.52 4.37-4.4 2.65 2.28 2 4.83Z" fill="#fff" fill-rule="evenodd"/><path d="M32 100.15h-.26a3.61 3.61 0 0 1-2.71-1.53 6.28 6.28 0 0 1-.67-5.24c.85-3.29 3.47-5.75 6-5.57a3.62 3.62 0 0 1 2.72 1.53 6.28 6.28 0 0 1 .67 5.24c-.8 3.17-3.27 5.57-5.75 5.57Zm2.13-9.25c-.83 0-2.24 1.23-2.76 3.24a3.35 3.35 0 0 0 .18 2.64.5.5 0 0 0 .45.22c.78 0 2.19-1.24 2.72-3.25a3.35 3.35 0 0 0-.18-2.64.51.51 0 0 0-.41-.25Z" fill="#c5c4bd"/><path d="M72.13 254.91c-.84 3.21-3.37 5.72-5.65 5.61s-3.45-2.79-2.6-6 3.37-5.72 5.65-5.61 3.47 2.79 2.6 6Z" fill="#fff" fill-rule="evenodd"/><path d="M66.62 262.08h-.22a4.22 4.22 0 0 1-3.25-1.76 7.31 7.31 0 0 1-.78-6.19c1-4 4.19-6.93 7.24-6.77a4.22 4.22 0 0 1 3.25 1.76 7.32 7.32 0 0 1 .79 6.19c-1.03 3.85-4.05 6.77-7.03 6.77Zm2.83-11.62c-1.42 0-3.39 1.83-4.07 4.45a4.34 4.34 0 0 0 .28 3.56 1.11 1.11 0 0 0 .89.5h.07c1.34 0 3.32-1.83 4-4.45a4.36 4.36 0 0 0-.28-3.56 1.11 1.11 0 0 0-.89-.5Z" fill="#c5c4bd"/><ellipse cx="73.98" cy="414.02" rx="12.4" ry="6.46" transform="rotate(-21.55 73.99 414.04)" fill="#c5c4bd"/><path d="M183.58 152.58a28.21 28.21 0 0 0-2.77-6.25 28.77 28.77 0 0 0-4.14-5.33 32.36 32.36 0 0 0-5.33-4.37s-1.32-.81-3.08-1.91-4-2.5-5.71-3.64l-3.08-2a12.77 12.77 0 0 1-3.12-2.82 11.53 11.53 0 0 1-1.9-3.47 10.56 10.56 0 0 1-.55-3.81 2.21 2.21 0 0 0-.12-.8 2.85 2.85 0 0 0-.4-.76 3.25 3.25 0 0 0-.64-.65 3.14 3.14 0 0 0-.8-.44 2.77 2.77 0 0 0-.84-.18 2.19 2.19 0 0 0-.79.1 13.66 13.66 0 0 1-4.35.64 15.21 15.21 0 0 1-4.42-.73 16 16 0 0 1-4.11-2l-2.57-1.76-4.86-3.31-2.55-1.73a.8.8 0 0 1-.1-.29c0-.15-.07-.33-.1-.48v-.25a.16.16 0 0 1 0-.08.39.39 0 0 1 .15-.09.73.73 0 0 1 .27-.05l5-.09c2.82 0 6.34-.12 9.14-.2s4.89-.18 4.89-.18a18.25 18.25 0 0 1 4.56.35 17.94 17.94 0 0 1 4.26 1.43 13.41 13.41 0 0 1 3.49 2.4 2.9 2.9 0 0 0 .93.61 2.64 2.64 0 0 0 1 .2 2 2 0 0 0 .95-.25 1.68 1.68 0 0 0 .65-.66 1.85 1.85 0 0 0 .21-.9 2.22 2.22 0 0 0-.25-1s-1.71-3.37-4-7.79-5.1-9.69-7.39-13.89-4-7.19-4-7.19a2.64 2.64 0 0 0-.7-.8 3.06 3.06 0 0 0-1-.5 2.62 2.62 0 0 0-1-.11s-3.49.3-8.19.52-10.67.34-15.46.43-8.42.21-8.42.21a25.71 25.71 0 0 0-13 4.06 21.13 21.13 0 0 0-7.87 9.55 19.87 19.87 0 0 0-1 12.39L91 107c.32 1.32.71 3 1 4.31l.55 2.36a20.49 20.49 0 0 0 2.1 5.46 22.39 22.39 0 0 0 3.6 4.77 26.65 26.65 0 0 0 5 4s1.65.94 3.85 2.26 5 3.07 7.21 4.52 3.92 2.59 3.92 2.59a11.27 11.27 0 0 1 4.69 6.74 12.48 12.48 0 0 1 .24 4.37 2.79 2.79 0 0 0 .06.94 3 3 0 0 0 .36.89 3 3 0 0 0 .63.75 2.82 2.82 0 0 0 .82.5 2.54 2.54 0 0 0 .88.19 2.27 2.27 0 0 0 .86-.15 17.25 17.25 0 0 1 4-1 13.58 13.58 0 0 1 4.25.11 9.16 9.16 0 0 1 3.83 1.67l2.17 1.66 4 3.11 2.19 1.69h.05v-.06s.4 1.68.92 3.93 1.19 5.14 1.71 7.47l.92 4.13a.23.23 0 0 1-.06.11.58.58 0 0 1-.17.13.74.74 0 0 1-.31.08s-3.13.17-7.3.45-9.43.75-13.63 1.31-7.37 1.13-7.37 1.13a16.75 16.75 0 0 1-5.17.24 14 14 0 0 1-4.62-1.32 10.28 10.28 0 0 1-3.55-2.81 2.2 2.2 0 0 0-.95-.69 2.06 2.06 0 0 0-1.12-.08 2.56 2.56 0 0 0-1.12.56 3.48 3.48 0 0 0-.87 1.08 4 4 0 0 0-.42 1.35 3.48 3.48 0 0 0 .09 1.39s1.27 4.7 3 11.14 3.85 15.13 5.53 22.23c1.72 7.27 3 12.89 3 12.89a3.49 3.49 0 0 0 .66 1.43 2.25 2.25 0 0 0 1.09.76 2 2 0 0 0 1.31 0s5.37-1.72 12.55-3.29a209.66 209.66 0 0 1 23.12-3.41c7.06-.67 12.33-1.15 12.33-1.15a26.06 26.06 0 0 0 15.73-7.35 31.64 31.64 0 0 0 8.44-15.22 35.8 35.8 0 0 0-.2-17.74s-.81-2.91-1.88-6.71-2.4-8.35-3.46-12-1.88-6.14-1.88-6.14Z" fill="#fff" fill-rule="evenodd"/><path d="M118.12 226.75a3 3 0 0 1-.89-.14 3.28 3.28 0 0 1-1.59-1.1 4.5 4.5 0 0 1-.87-1.86s-1.28-5.62-3-12.88c-1.67-7-3.79-15.55-5.53-22.21-1.68-6.44-2.95-11.13-2.95-11.13a4.55 4.55 0 0 1-.11-1.8 5.08 5.08 0 0 1 .53-1.7 4.49 4.49 0 0 1 1.13-1.41 3.6 3.6 0 0 1 1.58-.77 3.12 3.12 0 0 1 1.69.13 3.26 3.26 0 0 1 1.39 1 9.23 9.23 0 0 0 3.2 2.53 12.9 12.9 0 0 0 4.28 1.22 15.79 15.79 0 0 0 4.85-.22c.06 0 3.25-.58 7.44-1.14 3.88-.52 9-1 13.69-1.32 3.07-.2 5.57-.35 6.69-.42-.17-.75-.42-1.88-.71-3.19-.52-2.33-1.18-5.2-1.71-7.47l-.83-3.55-1.83-1.42-4-3.11-2.14-1.64a8.13 8.13 0 0 0-3.4-1.48 12.66 12.66 0 0 0-3.92-.1 16.29 16.29 0 0 0-3.76.93 3.29 3.29 0 0 1-1.17.21 3.68 3.68 0 0 1-1.33-.26 3.85 3.85 0 0 1-1.11-.68 4.07 4.07 0 0 1-1.32-2.19 3.79 3.79 0 0 1-.07-1.28 11.45 11.45 0 0 0-.22-4 10.23 10.23 0 0 0-4.26-6.12s-1.68-1.13-3.91-2.59-5-3.21-7.18-4.5-3.83-2.25-3.84-2.25l-.15-.09a27.71 27.71 0 0 1-5.13-4.08 23.48 23.48 0 0 1-3.77-5 21.56 21.56 0 0 1-2.21-5.74l-.68-2.34c-.31-1.34-.7-3-1-4.3l-.54-2.29a20.86 20.86 0 0 1 1-13 22.12 22.12 0 0 1 8.26-10 26.92 26.92 0 0 1 13.56-4.23s3.64-.12 8.45-.21c5.07-.1 10.86-.22 15.43-.43s8.11-.52 8.15-.52a3.87 3.87 0 0 1 1.44.16 4.1 4.1 0 0 1 1.29.67 3.65 3.65 0 0 1 1 1.12s1.7 3.06 4 7.19 5.08 9.43 7.4 13.9 4 7.8 4 7.8a3.28 3.28 0 0 1 .36 1.44 2.86 2.86 0 0 1-.34 1.4 2.74 2.74 0 0 1-1.06 1.07 3 3 0 0 1-1.43.38 3.76 3.76 0 0 1-1.43-.28 3.92 3.92 0 0 1-1.27-.83 12.34 12.34 0 0 0-3.22-2.21 16.81 16.81 0 0 0-4-1.34 17 17 0 0 0-4.3-.33s-2.1.1-4.91.18-6.33.16-9.16.2l-3.65.06 1.59 1.07 4.77 3.25 1.39 1 1.15.79a14.88 14.88 0 0 0 3.84 1.86 14.14 14.14 0 0 0 4.12.68h.18a12.59 12.59 0 0 0 3.84-.59 3.16 3.16 0 0 1 1-.15h.17a3.8 3.8 0 0 1 1.16.25 4.14 4.14 0 0 1 1.05.58 4.26 4.26 0 0 1 .85.85 3.9 3.9 0 0 1 .55 1.05 3.19 3.19 0 0 1 .18 1.16 9.54 9.54 0 0 0 .5 3.44 10.46 10.46 0 0 0 1.73 3.16 11.71 11.71 0 0 0 2.87 2.6l3.08 2c1.75 1.14 4 2.53 5.7 3.63s3.07 1.9 3.07 1.9h.08a33.47 33.47 0 0 1 5.49 4.51 29.87 29.87 0 0 1 4.28 5.53 29.35 29.35 0 0 1 2.87 6.49h-.09c.36.83.87 2.56 1.94 6.17s2.42 8.3 3.46 12 1.88 6.71 1.88 6.71a36.85 36.85 0 0 1 .2 18.26 32.55 32.55 0 0 1-8.67 15.71 27.15 27.15 0 0 1-16.26 7.66s-5.28.48-12.34 1.15a208.09 208.09 0 0 0-23 3.39c-7 1.54-12.4 3.25-12.45 3.27a3.12 3.12 0 0 1-1.09.18Zm-11.07-53h-.22a1.53 1.53 0 0 0-.67.34 2.43 2.43 0 0 0-.62.77 3 3 0 0 0-.31 1 2.46 2.46 0 0 0 .06 1s1.27 4.71 3 11.16c1.74 6.67 3.86 15.2 5.54 22.25 1.72 7.28 3 12.9 3 12.9a2.49 2.49 0 0 0 .45 1 1.23 1.23 0 0 0 .58.42 1 1 0 0 0 .66 0c.09 0 5.53-1.77 12.67-3.33a213.73 213.73 0 0 1 23.25-3.43c7.06-.67 12.34-1.15 12.34-1.15a25.09 25.09 0 0 0 15.1-7.05 30.5 30.5 0 0 0 8.12-14.71 34.78 34.78 0 0 0-.19-17.22s-.81-2.9-1.88-6.7-2.36-8.24-3.46-11.95c-1-3.47-1.81-6-1.84-6.17a27.25 27.25 0 0 0-2.67-6 27.78 27.78 0 0 0-4-5.14 31.36 31.36 0 0 0-5.13-4.22h-.08l-.13-.11.13.11c-.37-.22-1.55-1-3-1.89-1.76-1.1-4-2.5-5.73-3.64l-3.08-2a13.77 13.77 0 0 1-3.36-3 12.53 12.53 0 0 1-2.07-3.78 11.56 11.56 0 0 1-.61-4.18 1.18 1.18 0 0 0-.07-.42 1.82 1.82 0 0 0-.26-.49 2.15 2.15 0 0 0-.43-.43 2.08 2.08 0 0 0-.53-.29 1.74 1.74 0 0 0-.53-.12 1.07 1.07 0 0 0-.41 0 14.69 14.69 0 0 1-4.47.69h-.21a16.22 16.22 0 0 1-4.72-.78 16.93 16.93 0 0 1-4.38-2.12c-.23-.14-.59-.39-1.2-.81l-1.38-.94-4.77-3.24-2.55-1.72a1.34 1.34 0 0 1-.53-.92c0-.17-.08-.38-.11-.55v-.2a1.06 1.06 0 0 1 .26-.89l.06-.07a1.42 1.42 0 0 1 .56-.36 1.66 1.66 0 0 1 .58-.11l5-.09c2.82 0 6.33-.12 9.13-.2s4.87-.18 4.87-.18a19.39 19.39 0 0 1 4.82.37 18.9 18.9 0 0 1 4.51 1.51 14.41 14.41 0 0 1 3.76 2.59 1.87 1.87 0 0 0 .6.4 1.62 1.62 0 0 0 .6.13 1 1 0 0 0 .46-.11.65.65 0 0 0 .26-.26.81.81 0 0 0 .08-.39 1.2 1.2 0 0 0-.14-.52s-1.71-3.37-4-7.79-5.15-9.77-7.38-13.87-3.95-7.18-4-7.18a1.61 1.61 0 0 0-.43-.48 2 2 0 0 0-.63-.33 1.57 1.57 0 0 0-.63-.07c-.06 0-3.58.31-8.25.53s-10.4.34-15.49.44c-4.8.09-8.4.21-8.4.21a24.84 24.84 0 0 0-12.5 3.88 20.06 20.06 0 0 0-7.49 9.08 18.8 18.8 0 0 0-.94 11.75l.38 2.12c.32 1.32.71 3 1 4.32l.55 2.36a19.48 19.48 0 0 0 2 5.19 21.39 21.39 0 0 0 3.45 4.55 25.65 25.65 0 0 0 4.79 3.8h.05c.28.16 1.84 1.06 3.88 2.27s4.94 3 7.25 4.54 3.94 2.6 3.94 2.6a12.3 12.3 0 0 1 5.12 7.35 13.52 13.52 0 0 1 .27 4.74 1.73 1.73 0 0 0 0 .58 2 2 0 0 0 .65 1.07 1.83 1.83 0 0 0 .53.33 1.5 1.5 0 0 0 .53.11 1.26 1.26 0 0 0 .46-.08 18.4 18.4 0 0 1 4.24-1.05 14.65 14.65 0 0 1 4.58.12 10.18 10.18 0 0 1 4.26 1.86c.35.23 1 .7 2.18 1.64l4 3.12 2 1.53a1 1 0 0 1 .36.33l.07.12a1.12 1.12 0 0 1 .13.43l.87 3.72c.53 2.27 1.2 5.15 1.72 7.48.46 2 .82 3.65.9 4a1 1 0 0 1 0 .18 1 1 0 0 1 0 .13 1 1 0 0 1-.21.63l-.1.13a1.67 1.67 0 0 1-.51.39 1.78 1.78 0 0 1-.71.18s-3.12.17-7.28.45c-4.65.31-9.72.79-13.56 1.31-4.14.55-7.29 1.11-7.32 1.12a17.9 17.9 0 0 1-5.47.25 15 15 0 0 1-5-1.42 11.27 11.27 0 0 1-3.9-3.09 1.16 1.16 0 0 0-.5-.37 1 1 0 0 0-.17.06Z" fill="#fff"/><path d="M181.4 153a25.27 25.27 0 0 0-2.48-5.65 26.59 26.59 0 0 0-3.73-4.88 30 30 0 0 0-4.84-4l-3.09-2c-1.76-1.12-4-2.56-5.73-3.72l-3.08-2a16.16 16.16 0 0 1-3.95-3.75 14.7 14.7 0 0 1-2.32-4.35 12.73 12.73 0 0 1-.65-4.58 15.54 15.54 0 0 1-5 .75 17.9 17.9 0 0 1-5.2-.87 19.42 19.42 0 0 1-4.93-2.42l-2.58-1.78-4.82-3.23-2.55-1.73a3.15 3.15 0 0 1-.77-.67 1.6 1.6 0 0 1-.27-.49.56.56 0 0 1 0-.19l-.09-.32-.18-.59-.09-.32a1.69 1.69 0 0 1 .78-2 2.68 2.68 0 0 1 1.31-.34l4.94-.09c2.81 0 6.32-.11 9.11-.2s4.86-.18 4.86-.18a21.49 21.49 0 0 1 10.43 2.11 16.31 16.31 0 0 1 4.07 2.79s-1.71-3.39-4-7.83-5.08-9.74-7.36-13.95-3.93-7.21-3.93-7.21-3.5.31-8.21.53-10.71.35-15.51.43-8.45.21-8.45.21A24.3 24.3 0 0 0 101 84.12a19.11 19.11 0 0 0-7.28 8.57 17.46 17.46 0 0 0-.91 11.16s.24 1 .56 2.28.72 3 1 4.29l.55 2.35a18.44 18.44 0 0 0 1.91 4.91 20.75 20.75 0 0 0 3.27 4.33 24.93 24.93 0 0 0 4.51 3.62s1.65 1 3.85 2.3 5 3.1 7.22 4.57 3.92 2.62 3.92 2.62a14.39 14.39 0 0 1 3.81 3.78 14.13 14.13 0 0 1 2.09 4.72 15 15 0 0 1 .31 5.23 19.08 19.08 0 0 1 4.89-1.15 15.43 15.43 0 0 1 5 .32 12 12 0 0 1 4.53 2.11l2.16 1.65 4 3.08 2.18 1.68a4.59 4.59 0 0 1 .53.54 3.8 3.8 0 0 1 .41.63 3.3 3.3 0 0 1 .26.69l.94 3.92c.54 2.26 1.21 5.13 1.74 7.45l.94 4.11a3 3 0 0 1-.07 1.61 2.49 2.49 0 0 1-.87 1.19 2.72 2.72 0 0 1-1.48.52s-3.14.18-7.33.47-9.47.77-13.68 1.33-7.39 1.14-7.39 1.14a19.39 19.39 0 0 1-6.21.28 16.35 16.35 0 0 1-5.45-1.61 12.45 12.45 0 0 1-4.13-3.31s1.29 4.68 3 11.11 3.9 15.08 5.62 22.15c1.75 7.24 3.06 12.84 3.06 12.84s5.34-1.68 12.48-3.21a211.31 211.31 0 0 1 23-3.3l12.34-1.09a24.39 24.39 0 0 0 14.47-6.53 28.25 28.25 0 0 0 7.82-13.57 31.55 31.55 0 0 0 0-16s-.79-2.91-1.86-6.72-2.37-8.38-3.43-12-1.88-6.18-1.88-6.18Z" fill="#13224e" fill-rule="evenodd"/><path d="M174 154.6a18.81 18.81 0 0 0-1.78-4.2 20.25 20.25 0 0 0-2.68-3.63 23.06 23.06 0 0 0-3.41-3l-3.67-2.48c-2.09-1.42-4.7-3.22-6.78-4.67l-3.64-2.54a14.31 14.31 0 0 1-3.18-3 12.82 12.82 0 0 1-1.86-3.48 10.16 10.16 0 0 1-.63-3.39 12.64 12.64 0 0 1-3.77.31 15.94 15.94 0 0 1-8-2.79l-3.34-2.33c-1.89-1.32-4.26-2.94-6.15-4.23l-3.28-2.17a9.78 9.78 0 0 1-1.61-1.28 8.16 8.16 0 0 1-1.23-1.53 6.73 6.73 0 0 1-.77-1.72l-.28-1-.52-1.83-.28-1a4.9 4.9 0 0 1 .13-3.26 5 5 0 0 1 2.12-2.38 7.46 7.46 0 0 1 3.61-1l5.14-.1c2.93 0 6.58-.11 9.49-.18s5.07-.15 5.07-.15a10 10 0 0 1 1.56.06 10.46 10.46 0 0 1 2.08.45 8.32 8.32 0 0 1 2.21 1.1l-1.88-3.71c-1.07-2.1-2.41-4.69-3.48-6.75s-1.87-3.56-1.87-3.56-2.9.14-6.79.25-8.81.19-12.75.26-6.92.17-6.92.17a18.66 18.66 0 0 0-8.86 2.57 13.27 13.27 0 0 0-5.31 5.91 11.69 11.69 0 0 0-.61 7.81s.25 1 .59 2.26.76 2.94 1.09 4.26l.58 2.33a13.71 13.71 0 0 0 1.44 3.56 16 16 0 0 0 2.37 3.12 19.43 19.43 0 0 0 3.16 2.62s2 1.21 4.56 2.88 5.92 3.88 8.57 5.7 4.67 3.24 4.67 3.24a11 11 0 0 1 2.73 2.81 11.38 11.38 0 0 1 1.92 6.69 14.92 14.92 0 0 1 3.36-.52 12.54 12.54 0 0 1 3.6.36 9.67 9.67 0 0 1 3.38 1.59l3 2.22 5.55 4.16 3 2.25a11.4 11.4 0 0 1 1.71 1.53 10.26 10.26 0 0 1 1.33 1.86 8.74 8.74 0 0 1 .84 2.11s.52 2 1.2 4.73 1.55 6.22 2.23 9 1.2 5 1.2 5a8.43 8.43 0 0 1-.15 4.56 7.2 7.2 0 0 1-2.4 3.45 7.49 7.49 0 0 1-4.17 1.54s-3.3.21-7.7.51-10 .81-14.39 1.38-7.78 1.16-7.78 1.16a8.83 8.83 0 0 1-1.81.15 8.25 8.25 0 0 1-2.36-.36A6.43 6.43 0 0 1 119 187s.65 2.39 1.52 5.62 2 7.42 2.84 10.81 1.54 6 1.54 6 4.42-1 10.31-1.92 13.19-1.68 19-2.16l10.16-.83a18.45 18.45 0 0 0 10.47-4.34 19.2 19.2 0 0 0 5.85-9.17 21.18 21.18 0 0 0 .18-11.26s-.77-2.94-1.79-6.79-2.29-8.46-3.31-12.11-1.77-6.25-1.77-6.25Z" fill="#f6d400" fill-rule="evenodd"/></g></g></svg>